<svg xmlns="http://www.w3.org/2000/svg" version="1.1" xmlns:xlink="http://www.w3.org/1999/xlink" preserveAspectRatio="none" x="0px" y="0px" width="1024px" height="800px" viewBox="0 0 1024 800">
<g>
<path fill="#FB0000" stroke="none" d="
M 29.95 19
L 26.5 14.45 21.9 14.45
Q 21.65 14.75 21.35 15.05 19.1 17.3 16 17.3 12.95 17.3 10.65 15.05 10.35 14.75 10.1 14.45
L 4.25 14.45 1.9 18.7 1.75 41.35 7.25 41.4 7.2 22.6 8.85 22.6 8.7 70.15 14.5 70.15 14.5 43.5 17.15 43.5 17.15 70.2 22.85 70.2 22.8 22.7 24.55 22.7 24.55 41.5 30.15 41.5 29.95 19 Z"/>
</g>
<g>
<path fill="#FB0000" stroke="none" d="
M 20.05 13.8
Q 21.75 12.15 21.75 9.75 21.75 7.4 20.05 5.7 18.35 4 16 4 13.65 4 11.9 5.7 10.25 7.4 10.25 9.75 10.25 12.15 11.9 13.8 13.65 15.5 16 15.5 18.35 15.5 20.05 13.8 Z"/>
</g>
</svg>
